<?xml version="1.0" encoding="utf-8"?><svg xmlns="http://www.w3.org/2000/svg" xmlns:xlink="http://www.w3.org/1999/xlink"><symbol viewBox="0 0 18.024 36.999" id="fb" xmlns="http://www.w3.org/2000/svg"><defs><clipPath id="aa" clipPathUnits="userSpaceOnUse"><path d="M0 27.749h13.518V0H0z"/></clipPath></defs><g clip-path="url(#aa)" transform="matrix(1.33333 0 0 -1.33333 0 36.999)"><path d="M4.215 1.5H8.03v12.904h3.957v3.374H8.035l-.016.734c-.044 2.04.003 3.784 1.008 4.46l.189.127h2.8v3.15H8.779c-1.557-.091-2.711-.581-3.485-1.496-1.041-1.231-1.41-3.297-1.1-6.144l.093-.832H1.5v-3.375h2.715zM9.53 0H2.715v12.904H0v6.374h2.629c-.202 2.888.298 5 1.519 6.444 1.039 1.229 2.583 1.91 4.588 2.027h4.782V21.6H9.763c-.166-.315-.251-1.093-.252-2.321h3.978v-6.375H9.53z"/></g></symbol><symbol viewBox="0 0 30.649 30.667" id="instagram" xmlns="http://www.w3.org/2000/svg"><defs><clipPath id="ba" clipPathUnits="userSpaceOnUse"><path d="M0 23h22.987V0H0z"/></clipPath></defs><g clip-path="url(#ba)" transform="matrix(1.33333 0 0 -1.33333 0 30.667)"><path d="M16.989 23H5.997C2.697 23 0 20.301 0 17V6c0-3.3 2.697-6 5.997-6h10.995c3.296 0 5.995 2.701 5.995 6v11c0 3.301-2.699 6-5.998 6m0-1.499c2.48 0 4.498-2.02 4.498-4.5V6c0-2.482-2.018-4.5-4.498-4.5H5.997A4.504 4.504 0 001.499 6v11c0 2.48 2.018 4.5 4.498 4.5h10.992"/><path d="M11.493 17.422a5.929 5.929 0 010-11.855 5.925 5.925 0 015.926 5.927 5.926 5.926 0 01-5.926 5.928m0-1.5a4.434 4.434 0 004.429-4.428c0-2.44-1.99-4.43-4.43-4.43a4.434 4.434 0 00-4.427 4.43 4.431 4.431 0 004.428 4.428m6.141 3.04a1.342 1.342 0 10-.002-2.684 1.342 1.342 0 00.002 2.684"/></g></symbol><symbol viewBox="0 0 22.667 17.333" id="mail" xmlns="http://www.w3.org/2000/svg"><path d="M0 0v3.066l11.333 9.468 11.334-9.468V0zm1.867 2.133v-.266H20.8v.266L11.333 10zm18.933 5.6v7.733H1.867V7.734H0v9.6h22.667v-9.6z"/></symbol><symbol viewBox="0 0 26.607 26.567" id="phone" xmlns="http://www.w3.org/2000/svg"><defs><clipPath id="da" clipPathUnits="userSpaceOnUse"><path d="M0 19.925h19.955V0H0z"/></clipPath></defs><g clip-path="url(#da)" transform="matrix(1.33333 0 0 -1.33333 0 26.567)"><path d="M17.906 10.52h-8.5v-1.2h8.5l-2.101-2.1.9-.9 3.1 3.1c.2.2.2.6 0 .9l-3.1 3.1-.9-.9zM8.105.52v6.2c0 .3-.3.6-.6.6h-4.4c0-.7.6-1.2 1.2-1.2h2.5v-5h-3.7c-1-.1-1.8.7-1.9 1.7v14c0 1 .8 1.8 1.7 1.8h3.901v-5h-2.4c-.7 0-1.2-.6-1.2-1.2h4.4c.3 0 .6.3.6.6v6.3c-.1.3-.4.6-.7.6h-4.4c-1.6.1-3-1.2-3.1-2.9V3.12c-.1-1.701 1.2-3.1 2.9-3.1h4.599c.3-.101.6.2.6.5"/></g></symbol><symbol viewBox="0 0 40.004 21.012" id="vk" xmlns="http://www.w3.org/2000/svg"><defs><clipPath id="ea" clipPathUnits="userSpaceOnUse"><path d="M0 15.759h30.003V0H0z"/></clipPath></defs><g clip-path="url(#ea)" transform="matrix(1.33333 0 0 -1.33333 0 21.012)"><path d="M18.631 4.84c.9 0 1.683-.786 2.511-1.618.497-.5 1.011-1.016 1.496-1.307.727-.44 1.316-.421 1.398-.412l.103.009 3.805.048c.171.01.412.072.537.135-.019.04-.049.094-.099.167-.449.718-1.388 1.66-2.686 2.718-1.184.963-1.8 1.465-1.865 2.244-.066.805.493 1.439 1.608 2.703.28.318.603.685.966 1.109 1.56 1.82 1.957 2.64 2.058 2.956-.17.029-.647.02-.678.019l-4.36-.03c-.19 0-.25-.033-.25-.035-.176-.414-.812-1.811-1.644-3.05-1.895-2.82-2.785-3.2-3.407-3.201-.204 0-.396.05-.569.149-1.003.568-.963 1.833-.934 2.756.005.149.01.295.01.432 0 .645.025 1.207.048 1.688.076 1.68.016 1.692-.379 1.776-.409.086-.705.147-1.856.16l-.693.004c-.624 0-1.343-.014-1.906-.098a1.75 1.75 0 00.26-.251c.587-.704.603-1.951.6-2.194.13-1.646.061-3.796-1.018-4.313a1.365 1.365 0 00-.597-.137c-.926 0-1.854.886-3.425 3.267a22.765 22.765 0 00-1.587 2.888.464.464 0 01-.075.093 1.168 1.168 0 01-.32.117l-4-.025c-.022-.001-.046-.002-.07-.005.59-1.19 3.425-6.592 6.518-9.418 2.74-2.503 5.826-2.63 6.417-2.63l1.852.004c.045.01.217.06.268.099-.018-.018-.01.053-.01.097-.003.266.012 2.596 1.578 3.034.126.034.26.052.395.052M23.94 0c-.387 0-1.17.082-2.076.632-.642.386-1.223.969-1.784 1.532-.438.44-1.17 1.177-1.447 1.177-.268-.074-.48-.921-.476-1.568.004-.114 0-.775-.467-1.213-.427-.401-1.09-.486-1.218-.498L14.546.054c-.967 0-4.358.219-7.429 3.02C3.443 6.435.282 12.874.15 13.145c-.197.463-.248 1.067.152 1.483.392.413 1.081.472 1.36.479l4.082.025.115-.01c.091-.013.567-.093.957-.348.388-.246.59-.651.626-.73.01-.021.65-1.432 1.475-2.683 1.312-1.991 1.896-2.456 2.103-2.562.188.417.277 1.699.187 2.87.001.493-.1 1.098-.252 1.278-.112.134-.426.253-.778.294l-.722.69c-.096.66.635 1.227 1.15 1.447.736.317 1.791.382 3.146.382l.71-.005c1.235-.012 1.622-.081 2.15-.191 1.701-.361 1.64-1.73 1.566-3.312-.02-.464-.046-1.001-.046-1.62 0-.152-.005-.312-.01-.48-.012-.38-.033-1.038.092-1.304.22.145.853.665 2.072 2.483.784 1.165 1.4 2.539 1.517 2.803h.001c.183.43.608.942 1.613.947l4.275.024c.011.003.171.016.377.016.98 0 1.596-.287 1.832-.854.268-.65.17-1.656-2.355-4.605-.37-.432-.697-.804-.982-1.127-.598-.678-1.216-1.38-1.237-1.595.053-.168.662-.664 1.252-1.145 1.531-1.247 2.53-2.264 3.033-3.073.522-.76.43-1.33.258-1.677C29.444.18 28.231.07 27.991.06l-3.79-.048A2.502 2.502 0 0023.94 0"/></g></symbol></svg>