<?xml version="1.0" encoding="utf-8"?><svg width="183" height="122" viewBox="0 0 183 122" xmlns="http://www.w3.org/2000/svg" xmlns:xlink="http://www.w3.org/1999/xlink"><svg viewBox="0 0 66.667 34.671" height="26" width="50" id="arrow-left" x="100" xmlns="http://www.w3.org/2000/svg"><path d="M17.34 0L0 17.332l.004.002L0 17.34l17.34 17.332 3.77-3.771-10.895-10.899h56.452V14.67H10.212L21.111 3.772z"/></svg><svg viewBox="0 0 66.667 34.671" height="26" width="50" id="arrow-right" x="100" y="26" xmlns="http://www.w3.org/2000/svg"><path d="M49.327 0l-3.772 3.772L56.454 14.67H0v5.332h56.45L45.555 30.901l3.772 3.77 17.34-17.331-.005-.006.005-.002z"/></svg><svg viewBox="0 0 42.63 49.734" height="37" width="32" id="flower" y="85" xmlns="http://www.w3.org/2000/svg"><path d="M0 28.42c0 11.767 9.544 21.314 21.315 21.314 0-11.77-9.544-21.315-21.315-21.315m21.315-17.76a5.921 5.921 0 010 11.84 5.924 5.924 0 01-5.922-5.92 5.923 5.923 0 015.922-5.92M6.169 21.906a5.924 5.924 0 005.92 5.92 5.91 5.91 0 003.352-1.042l-.048.45a5.924 5.924 0 005.922 5.922 5.923 5.923 0 005.92-5.923l-.048-.45a5.863 5.863 0 003.352 1.045 5.924 5.924 0 005.92-5.922 5.89 5.89 0 00-3.387-5.329c1.99-.947 3.387-2.973 3.387-5.328a5.923 5.923 0 00-9.272-4.88l.048-.45a5.921 5.921 0 00-11.842 0l.048.45a5.923 5.923 0 00-9.272 4.88 5.892 5.892 0 003.387 5.328 5.893 5.893 0 00-3.387 5.33m15.146 27.826c11.769 0 21.314-9.547 21.314-21.315-11.77 0-21.314 9.544-21.314 21.315" fill="#63d1bb"/></svg><svg viewBox="0 0 44.067 37.143" height="28" width="33" id="heart" x="66" y="85" xmlns="http://www.w3.org/2000/svg"><path d="M44.067 11.648A11.648 11.648 0 0032.419 0a11.635 11.635 0 00-10.386 6.391A11.637 11.637 0 0011.648.001 11.648 11.648 0 000 11.647c0 12.17 19.541 25.494 22.033 25.494 2.494 0 22.034-13.267 22.034-25.494" fill="#63d1bb"/></svg><svg viewBox="0 0 53.626 83.215" height="62" width="40" id="interior" xmlns="http://www.w3.org/2000/svg"><path d="M20.237 50.611c-.381 1.288-.326 2.92.036 4.852.659 3.512 2.248 8.053 3.144 12.893h6.75c.929-4.854 2.598-9.4 3.293-12.91.384-1.927.44-3.547.053-4.823-.364-1.2-1.186-2.157-2.693-3.07h-7.996c-1.432.905-2.232 1.853-2.587 3.058m15.776 26.66h-18.4c-1.724 0-3.066 1.301-3.066 2.972v2.972h24.53v-2.972c0-1.67-1.341-2.972-3.065-2.972m9.51-74.298H29.88c0-1.66-1.355-2.974-3.067-2.974-1.712 0-3.066 1.315-3.066 2.974H8.096L0 36.995c1.059-.616 2.12-1.324 3.51-1.324 1.813 0 2.989 1.09 3.898 1.835.91.742 1.548 1.132 1.93 1.132.387 0 1.023-.384 1.934-1.115.908-.733 2.084-1.81 3.887-1.81 1.797 0 2.981 1.073 3.893 1.803.91.732 1.547 1.12 1.933 1.12.195 0 .45-.096.774-.285.32-.188.706-.47 1.16-.835.684-.548 1.52-1.29 2.654-1.626.379-.112.79-.179 1.24-.179 1.795 0 2.983 1.073 3.894 1.805.909.731 1.544 1.12 1.933 1.12.383-.002 1.021-.394 1.928-1.133.912-.737 2.093-1.821 3.899-1.821 1.809 0 2.986 1.09 3.893 1.826.456.37.841.654 1.163.843.32.19.574.285.765.285.384 0 1.016-.39 1.924-1.138.907-.747 2.09-1.846 3.904-1.846 1.393 0 2.453.711 3.51 1.33zM31.365 71.327h-9.15c-.877 0-1.534.639-1.534 1.487 0 .846.657 1.485 1.533 1.485h9.2c.874 0 1.534-.639 1.534-1.485 0-.848-.66-1.487-1.534-1.487zm-4.55-32.645c-.197 0-.453.098-.774.284-.21.125-.493.348-.76.546v4.975h3.067v-4.973c-.676-.507-1.214-.832-1.534-.832"/></svg><svg viewBox="0 0 43.555 43.315" height="32" width="33" id="present" x="150" xmlns="http://www.w3.org/2000/svg"><path d="M23.028 43.315h16.675V24.768H23.028zm2.641-36.781c.743-1.063 1.614-1.955 2.516-2.555.906-.601 1.816-.91 2.73-.91h.006c.767 0 1.49.293 1.994.733.502.448.76.985.764 1.561-.006.683-.364 1.679-1.956 2.843-1.518 1.1-4.135 2.23-8.17 3.02a14.093 14.093 0 012.116-4.692M11.62 8.704c-.83-.522-1.333-1.048-1.627-1.514-.293-.47-.392-.883-.394-1.284-.006-.672.33-1.39.922-1.948.582-.554 1.371-.89 2.083-.89h.017c.912 0 1.822.31 2.728.911 1.356.895 2.632 2.467 3.526 4.25.456.9.813 1.851 1.052 2.78-4.11-.426-6.771-1.333-8.307-2.306m29.816 3.119h-9.78a14.494 14.494 0 001.863-1.127c2.117-1.51 3.232-3.427 3.226-5.332.003-1.559-.741-2.936-1.813-3.868A6.11 6.11 0 0030.912 0c-1.627 0-3.136.562-4.428 1.426-1.945 1.305-3.475 3.268-4.565 5.422-.052.106-.104.211-.154.316a17.259 17.259 0 00-1.388-2.389c-.921-1.315-2.03-2.481-3.329-3.348C15.755.564 14.245.002 12.618.002c-1.617.005-3.097.684-4.206 1.726-1.105 1.044-1.881 2.512-1.884 4.18a5.46 5.46 0 00.867 2.916c.736 1.163 1.898 2.171 3.51 2.998H2.121A2.121 2.121 0 000 13.942v7.862h20.528V11.82h2.499v9.984h20.528v-7.862a2.116 2.116 0 00-2.12-2.12M3.86 43.315h16.672V24.768H3.86z" fill="#63d1bb"/></svg><svg viewBox="0 0 62.1 36.442" height="27" width="47" id="price" x="100" y="52" xmlns="http://www.w3.org/2000/svg"><g fill="#63d1bb"><path d="M4.03 3.622h53.603v29.644H4.031zM56.894 0H5.205A5.207 5.207 0 000 5.206v26.03a5.207 5.207 0 005.205 5.206h51.688a5.208 5.208 0 005.207-5.207V5.206A5.208 5.208 0 0056.893 0"/><path d="M31.05 11.358a7.087 7.087 0 110 14.173 7.087 7.087 0 010-14.173M9.238 28.06h43.194V8.83H9.237z"/></g></svg><svg viewBox="0 0 72.208 30.911" height="23" width="54" id="rocket" y="62" xmlns="http://www.w3.org/2000/svg"><path d="M53.75 7.614c-4.863-1.293-10.454-2.223-16.48-2.221a61.859 61.859 0 00-10.28.83L17.942 0 0 .006l7.75 8.245h11.263C12.907 10.382 10 12.938 10 12.938l.003 5.036s3.085 2.55 9.241 4.69l-11.497-.007L0 30.907l17.939.003 9.088-6.257a59.024 59.024 0 0010.24.866c6.03-.002 11.617-.932 16.48-2.224-1.566-2.368-2.551-4.99-2.555-7.836.004-2.852.984-5.48 2.556-7.845m4.564 1.379c-1.712 2.14-2.625 4.333-2.62 6.453-.01 2.13.903 4.319 2.624 6.464 8.533-2.884 13.893-6.455 13.893-6.455s-5.36-3.573-13.897-6.462" fill="#63d1bb"/></svg><svg viewBox="0 0 79.999 79.493" height="60" width="60" id="toy" x="40" xmlns="http://www.w3.org/2000/svg"><path d="M39.888 8.764c5.692 0 10.297-1.96 10.297-4.381C50.185 1.963 45.58 0 39.887 0c-5.694 0-10.304 1.963-10.304 4.382 0 2.42 4.612 4.38 10.305 4.38m3.52 39.873v30.857L80 58.243v-30.86zm6.863-18.498c0 2.423-4.614 4.383-10.304 4.383s-10.306-1.96-10.306-4.383v-5.413h.034c.346 2.288 4.804 4.103 10.273 4.103 5.467 0 9.924-1.815 10.273-4.102h.03zM68.46 16.584v3.27c0 2.422-4.61 4.384-10.307 4.384-5.688 0-10.302-1.962-10.302-4.386v-5.41h.033c.347 2.286 4.804 4.096 10.27 4.096 5.695 0 10.306-1.965 10.306-4.38 0-2.426-4.61-4.383-10.307-4.383-.452 0-.9.013-1.336.04L50.184 5.96v4.119c0 2.423-4.605 4.386-10.297 4.386-3.576 0-6.726-.777-8.576-1.955a5.196 5.196 0 00-.978-.782c-.482-.51-.752-1.062-.752-1.65V6.1l-6.41 3.722a28.457 28.457 0 00-1.404-.044c-5.69 0-10.303 1.959-10.303 4.384 0 2.413 4.613 4.38 10.303 4.38 5.466 0 9.926-1.81 10.272-4.097h.029v5.41c0 2.422-4.607 4.384-10.301 4.384-5.69 0-10.303-1.962-10.303-4.386v-3.227l-7.936 4.603 36.708 21.314 36.468-21.176zM0 58.242l36.585 21.244V48.36L0 27.106z" fill="#231f20"/></svg><svg viewBox="0 0 45.831 45.83" height="34" width="34" id="yarn" x="32" y="85" xmlns="http://www.w3.org/2000/svg"><path d="M.381 18.758a22.992 22.992 0 00.011 8.401l5.493-4.28zM32.537 2.114C26.16-.83 18.613-.745 12.2 2.657l10.017 7.5zm12.664 15.452l-6.413 4.997 6.58 4.927a22.999 22.999 0 00-.167-9.924M12.28 43.218c6.458 3.379 14.298 3.533 20.973.15l-10.795-8.08zm-1.727-23.975l-8.31-6.22a22.987 22.987 0 00-1.1 2.742l7.077 5.297zM24.791 33.47l11.114 8.321a22.88 22.88 0 002.32-1.826L27.124 31.65zm-9.574-17.861L5.337 8.21a22.56 22.56 0 00-1.693 2.297l9.24 6.92zm14.24 14.225l10.79 8.079a23.012 23.012 0 001.729-2.27l-10.187-7.626zm-9.573-17.86L9.596 4.27a21.81 21.81 0 00-2.28 1.857l10.235 7.663zm14.239 14.224l9.296 6.961c.44-.882.82-1.786 1.14-2.71l-8.103-6.067zm1.14-22.59l-34.09 26.56a22.58 22.58 0 001.12 2.745l35.36-27.55a22.654 22.654 0 00-2.39-1.756m5.728 5.224c-.4-.514-.82-1.005-1.252-1.474L3.715 35.422a22.54 22.54 0 001.704 2.29l36.12-28.143a22.003 22.003 0 00-.548-.738m2.073 3.167L7.403 39.785a22.883 22.883 0 002.276 1.842l34.617-26.97c-.35-.904-.76-1.792-1.232-2.659" fill="#63d1bb"/></svg></svg>