<?xml version="1.0" encoding="utf-8"?><svg width="88" height="77" viewBox="0 0 88 77" xmlns="http://www.w3.org/2000/svg" xmlns:xlink="http://www.w3.org/1999/xlink"><svg width="9" height="18" viewBox="0 0 9 18" id="facebook" x="79" xmlns="http://www.w3.org/2000/svg"><defs><filter id="a"><feFlood flood-color="#D22856" flood-opacity="1" result="floodOut"/><feComposite operator="atop" in="floodOut" in2="SourceGraphic" result="compOut"/><feBlend in="compOut" in2="SourceGraphic"/></filter></defs><g filter="url(#a)"><path fill-rule="evenodd" fill="#B8B8B8" d="M5.544 18.517H1.859V9.609H.017V6.538h1.842V4.695c0-2.504 1.04-3.994 3.993-3.994h2.46v3.071H6.775c-1.15 0-1.226.429-1.226 1.23l-.005 1.536H8.33l-.326 3.071h-2.46v8.908z"/></g></svg><svg viewBox="0 0 104.896 85.052" height="63" width="79" id="quotes" xmlns="http://www.w3.org/2000/svg"><path d="M46.623 9.418L40.95 0C37.696 1.994 0 16.276 0 52.823c0 9.64.448 32.229 25.2 32.229 14.916 0 18.587-13.707 18.587-18.112 0-29.303-28.51-18.904-28.51-18.904 0-24.093 26.407-35.79 31.346-38.618m58.273 0L99.224 0c-3.254 1.994-40.95 16.276-40.95 52.823 0 9.64.449 32.229 25.2 32.229 14.915 0 18.584-13.707 18.584-18.112 0-29.303-28.508-18.904-28.508-18.904.003-24.093 26.408-35.79 31.346-38.618" fill="#efefef"/></svg><svg viewBox="0 0 23.333 19.549" height="14" width="18" id="twitter" y="63" xmlns="http://www.w3.org/2000/svg"><path d="M15.044.203c2.315-.646 4.099.351 4.913 1.535.926-.301 1.83-.627 2.763-.92-.005 1.12-.717 1.97-1.177 2.301.938.222 1.79-.64 1.79-.64-.233 1.302-1.38 2.328-2.15 2.636-.316 8.79-4.359 14.608-13.839 14.431h-.613c-.566 0-5.722-.599-6.731-2.457 3.121.256 5.348-.55 6.447-1.532-1.319-.391-3.68-.62-4.094-3.84.483.137.778.294 1.638.153C2.343 10.755.513 9.82.615 6.957c.392.426 1.466.697 1.841.614-.967-.313-2.707-4.373-1.227-6.448 2.496 2.415 5.13 4.695 9.824 4.914.288-2.987 1.562-4.987 3.991-5.834" fill="#d22856"/></svg><svg viewBox="0 0 19.518 18.613" height="13" width="15" id="youtube" x="18" y="63" xmlns="http://www.w3.org/2000/svg"><path d="M2.367 18.373C1.064 19.008 0 18.341 0 16.893V1.72C0 .269 1.064-.394 2.367.24l16.177 7.91c1.299.637 1.299 1.677 0 2.314z" fill="#d22856"/></svg></svg>